<?xml version="1.0" standalone="no"?>
<!DOCTYPE svg PUBLIC "-//W3C//DTD SVG 20010904//EN"
 "http://www.w3.org/TR/2001/REC-SVG-20010904/DTD/svg10.dtd">
<svg version="1.0" xmlns="http://www.w3.org/2000/svg"
 width="300.000000pt" height="100.000000pt" viewBox="0 0 300.000000 100.000000"
 preserveAspectRatio="xMidYMid meet">

<g transform="translate(0.000000,100.000000) scale(0.100000,-0.100000)"
fill="#000000" stroke="none">
<path d="M1638 625 c-6 -14 -8 -28 -5 -31 8 -8 35 13 48 38 8 15 6 18 -11 18
-12 0 -25 -10 -32 -25z"/>
<path d="M1846 641 c-4 -6 -13 -8 -21 -4 -27 10 -64 -6 -71 -31 -3 -14 -12
-27 -20 -30 -19 -7 -18 -36 1 -36 12 0 15 -13 15 -55 0 -52 1 -55 25 -55 24 0
25 3 25 55 0 42 3 55 15 55 19 0 20 29 0 36 -27 11 -4 24 41 24 41 0 45 2 42
23 -3 23 -41 37 -52 18z"/>
<path d="M1293 626 c-39 -18 -53 -43 -53 -96 0 -60 41 -100 103 -100 71 0 77
5 77 66 l0 54 -40 0 c-33 0 -40 -3 -40 -20 0 -11 7 -20 15 -20 8 0 15 -9 15
-20 0 -15 -7 -20 -24 -20 -48 0 -71 53 -45 101 9 17 19 20 57 18 37 -3 48 0
50 13 4 20 -3 25 -48 32 -21 4 -48 0 -67 -8z"/>
<path d="M715 534 c25 -53 45 -98 45 -100 0 -2 10 -4 23 -4 20 0 30 15 65 94
23 52 42 97 42 100 0 3 -11 6 -24 6 -19 0 -28 -12 -53 -67 l-29 -67 -29 67
c-25 60 -31 67 -56 67 l-28 0 44 -96z"/>
<path d="M915 555 c-49 -48 -16 -125 53 -125 20 0 43 4 51 9 22 14 -1 36 -38
36 -19 0 -36 6 -38 13 -3 8 9 12 41 12 39 0 46 3 46 20 0 28 -35 60 -65 60
-14 0 -37 -11 -50 -25z m70 -25 c4 -6 -5 -10 -20 -10 -15 0 -24 4 -20 10 3 6
12 10 20 10 8 0 17 -4 20 -10z"/>
<path d="M1050 505 c0 -73 1 -75 24 -75 23 0 25 5 28 48 3 43 5 47 31 50 19 2
27 9 27 23 0 24 -25 35 -44 20 -10 -8 -16 -9 -21 -1 -3 5 -15 10 -26 10 -17 0
-19 -7 -19 -75z"/>
<path d="M1448 573 c-2 -5 -2 -38 0 -75 3 -64 5 -68 28 -68 22 0 24 4 24 50 0
47 2 50 25 50 20 0 25 5 25 25 0 27 -10 31 -41 15 -13 -7 -19 -7 -19 0 0 11
-37 14 -42 3z"/>
<path d="M1586 568 c-27 -15 -38 -56 -26 -94 13 -38 24 -43 98 -43 l52 0 0 73
0 73 -54 0 c-29 0 -61 -4 -70 -9z m69 -63 c0 -23 -5 -31 -22 -33 -19 -3 -23 1
-23 26 0 33 8 44 30 40 9 -2 15 -14 15 -33z"/>
<path d="M1847 574 c-4 -4 -7 -38 -7 -76 l0 -68 30 0 31 0 -3 73 c-3 64 -5 72
-23 75 -12 2 -24 0 -28 -4z"/>
<path d="M1942 564 c-56 -47 -26 -134 46 -134 20 0 43 4 51 9 21 14 0 36 -34
36 -27 0 -30 3 -30 30 0 27 3 30 32 29 20 -1 34 4 38 14 7 20 3 23 -42 29 -28
4 -44 0 -61 -13z"/>
<path d="M2077 563 c-23 -26 -30 -68 -16 -95 17 -33 27 -37 91 -37 l58 1 0 74
c0 65 -2 74 -18 74 -10 0 -23 -5 -29 -11 -8 -8 -13 -8 -17 0 -11 17 -51 13
-69 -6z m78 -58 c0 -23 -5 -31 -21 -33 -26 -4 -38 22 -23 49 16 30 44 20 44
-16z"/>
</g>
</svg>
